HIERARCHY
ROOT SpineBase
{
  OFFSET 0.000000 0.000000 0.000000
  CHANNELS 6 Xposition Yposition Zposition Zrotation Xrotation Yrotation
  JOINT SpineMid
  {
    OFFSET 0.000000 27.189996 -0.000000
    CHANNELS 3 Zrotation Xrotation Yrotation
    JOINT SpineShoulder
    {
      OFFSET 0.004828 20.342403 -0.799500
      CHANNELS 3 Zrotation Xrotation Yrotation
      JOINT Neck
      {
        OFFSET -0.014727 6.776507 -0.576506
        CHANNELS 3 Zrotation Xrotation Yrotation
        JOINT Head
        {
          OFFSET 2.858187 11.804107 1.128073
          CHANNELS 3 Zrotation Xrotation Yrotation
          End Site
          {
            OFFSET 0 0 0
          }
        }
      }
      JOINT ShoulderLeft
      {
        OFFSET -13.723162 -3.261109 -6.777687
        CHANNELS 3 Zrotation Xrotation Yrotation
        JOINT ElbowLeft
        {
          OFFSET -10.600831 -20.817363 -1.143857
          CHANNELS 3 Zrotation Xrotation Yrotation
          JOINT WristLeft
          {
            OFFSET 5.301978 -6.739021 -22.973210
            CHANNELS 3 Zrotation Xrotation Yrotation
            JOINT HandLeft
            {
              OFFSET 0.565719 -2.944108 -3.269507
              CHANNELS 3 Zrotation Xrotation Yrotation
              JOINT HandTipLeft
              {
                OFFSET 0.954199 -3.438168 -1.928845
                CHANNELS 3 Zrotation Xrotation Yrotation
                End Site
                {
                  OFFSET 0 0 0
                }
              }
              JOINT ThumbLeft
              {
                OFFSET -1.159073 2.748763 -1.937368
                CHANNELS 3 Zrotation Xrotation Yrotation
                End Site
                {
                  OFFSET 0 0 0
                }
              }
            }
          }
        }
      }
      JOINT ShoulderRight
      {
        OFFSET 16.655936 -3.728726 4.933834
        CHANNELS 3 Zrotation Xrotation Yrotation
        JOINT ElbowRight
        {
          OFFSET 7.623168 -21.557148 6.297564
          CHANNELS 3 Zrotation Xrotation Yrotation
          JOINT WristRight
          {
            OFFSET 14.802978 -9.778854 -13.913570
            CHANNELS 3 Zrotation Xrotation Yrotation
            JOINT HandRight
            {
              OFFSET -0.317544 -5.789782 -0.902486
              CHANNELS 3 Zrotation Xrotation Yrotation
              JOINT HandTipRight
              {
                OFFSET 0.228904 -5.931770 -3.127117
                CHANNELS 3 Zrotation Xrotation Yrotation
                End Site
                {
                  OFFSET 0 0 0
                }
              }
              JOINT ThumbRight
              {
                OFFSET -3.651635 -2.570235 -0.487780
                CHANNELS 3 Zrotation Xrotation Yrotation
                End Site
                {
                  OFFSET 0 0 0
                }
              }
            }
          }
        }
      }
    }
  }
  JOINT HipLeft
  {
    OFFSET -7.063091 1.199783 -4.892158
    CHANNELS 3 Zrotation Xrotation Yrotation
    JOINT KneeLeft
    {
      OFFSET 10.987563 1.695542 -29.681419
      CHANNELS 3 Zrotation Xrotation Yrotation
      JOINT AnkleLeft
      {
        OFFSET 1.221142 -33.844681 -5.710502
        CHANNELS 3 Zrotation Xrotation Yrotation
        JOINT FootLeft
        {
          OFFSET 3.466262 -6.844715 -4.407441
          CHANNELS 3 Zrotation Xrotation Yrotation
          End Site
          {
            OFFSET 0 0 0
          }
        }
      }
    }
  }
  JOINT HipRight
  {
    OFFSET 6.685033 0.802946 -1.761238
    CHANNELS 3 Zrotation Xrotation Yrotation
    JOINT KneeRight
    {
      OFFSET 19.339521 1.013653 -24.225694
      CHANNELS 3 Zrotation Xrotation Yrotation
      JOINT AnkleRight
      {
        OFFSET 1.380579 -33.788230 -4.228627
        CHANNELS 3 Zrotation Xrotation Yrotation
        JOINT FootRight
        {
          OFFSET 2.983686 -3.168016 -11.781559
          CHANNELS 3 Zrotation Xrotation Yrotation
          End Site
          {
            OFFSET 0 0 0
          }
        }
      }
    }
  }
}
MOTION
Frames: 8
Frame Time: 0.033333
21.014083 38.147869 374.189580 -2.074582 0.185429 -13.319526 0.179416 -0.121476 13.244634 -0.022823 -0.164854 -0.093312 3.077524 0.378353 -0.005268 0.000000 0.000000 0.000000 1.950607 0.144598 0.163826 -0.122802 1.059435 1.215961 4.916125 -3.335347 -6.915704 -7.718082 4.518770 8.264057 0.000000 0.000000 0.000000 0.000000 0.000000 0.000000 1.950607 0.144598 0.163826 4.584323 3.812372 -0.817367 -3.003784 -11.283680 0.899205 4.310409 3.320848 -3.872196 0.000000 0.000000 0.000000 0.000000 0.000000 0.000000 1.791760 -0.886927 11.390927 0.498433 1.107819 1.920397 -0.818072 10.609631 5.667752 0.000000 0.000000 0.000000 1.700726 -0.236869 10.757192 0.525445 1.368528 2.580611 -0.112210 -0.906740 -0.023919 0.000000 0.000000 0.000000
21.192594 38.119518 374.158647 -1.796571 0.156964 -13.545680 0.074259 -0.195477 13.475488 0.076042 -0.192936 -0.077988 3.027295 0.442757 -0.041430 0.000000 0.000000 0.000000 1.693737 0.247774 0.141001 -0.056833 1.561490 1.360373 5.103812 -5.435008 -7.681422 -6.811831 4.009779 7.779757 0.000000 0.000000 0.000000 0.000000 0.000000 0.000000 1.693737 0.247774 0.141001 4.461901 3.669065 -0.849794 -3.385770 -11.739915 1.000780 0.774149 5.015609 -1.440153 0.000000 0.000000 0.000000 0.000000 0.000000 0.000000 1.549556 -0.813854 11.887331 0.451742 1.010674 1.651538 -1.051220 10.250429 5.670058 0.000000 0.000000 0.000000 1.419524 -0.287377 11.090749 0.463931 0.475207 2.451233 0.151930 -0.221991 -0.778419 0.000000 0.000000 0.000000
21.406465 38.099068 374.140745 -1.456002 0.084847 -13.738240 -0.082013 -0.211727 13.674395 0.138486 -0.235374 -0.064663 3.176369 0.558829 -0.112223 0.000000 0.000000 0.000000 1.446993 0.340003 0.119581 -0.122304 0.949591 1.133941 5.337952 -3.698793 -7.399336 -7.706345 4.075801 8.383999 0.000000 0.000000 0.000000 0.000000 0.000000 0.000000 1.446993 0.340003 0.119581 4.409621 3.533087 -0.964699 -2.876516 -11.527112 1.114108 3.544178 5.713323 -3.388612 0.000000 0.000000 0.000000 0.000000 0.000000 0.000000 1.240238 -0.713522 12.432484 0.400060 0.912132 1.299590 -0.640638 13.401448 6.801704 0.000000 0.000000 0.000000 1.063967 -0.324570 11.437649 0.479778 0.502760 2.296069 0.161573 -0.215501 -0.808098 0.000000 0.000000 0.000000
21.527332 38.079306 374.126261 -1.283594 -0.004595 -13.838593 -0.123950 -0.189343 13.779696 0.151158 -0.296354 -0.058064 3.412590 0.724216 -0.182559 0.000000 0.000000 0.000000 0.963786 1.151492 -0.223773 0.144227 -0.491191 1.141204 5.398683 -1.623967 -6.813342 -4.860533 -3.989937 4.793695 0.000000 0.000000 0.000000 0.000000 0.000000 0.000000 1.297490 0.457827 0.106232 4.141028 3.268972 -0.970371 -2.703890 -11.149723 1.144091 5.448432 6.329427 -4.559020 0.000000 0.000000 0.000000 0.000000 0.000000 0.000000 1.078173 -0.562160 12.734914 -0.011122 0.066403 1.137736 -0.211550 14.451860 6.876568 0.000000 0.000000 0.000000 0.881105 -0.268286 11.562433 0.472968 0.494983 2.270818 0.161134 -0.219834 -0.810674 0.000000 0.000000 0.000000
21.585519 38.067228 374.147561 -1.212282 -0.156204 -13.792681 -0.113152 -0.107778 13.737368 0.130554 -0.371569 -0.056163 3.507226 1.069465 -0.266568 0.000000 0.000000 0.000000 1.216560 0.607820 0.098412 -0.000000 0.000000 0.000000 4.554034 -1.037845 -5.227216 -3.643793 -4.083163 3.654985 0.000000 0.000000 0.000000 0.000000 0.000000 0.000000 1.216560 0.607820 0.098412 4.047248 3.141093 -1.021326 -2.473385 -10.151134 1.140807 7.107001 6.541019 -5.547382 0.000000 0.000000 0.000000 0.000000 0.000000 0.000000 0.990074 -0.352837 12.815320 -0.014392 -0.088446 1.000788 -0.224218 14.716145 6.952138 0.000000 0.000000 0.000000 0.775795 -0.138611 11.520226 0.472678 0.494846 2.265336 0.148590 -0.237617 -0.781134 0.000000 0.000000 0.000000
21.562004 38.062790 374.182493 -1.290986 -0.299694 -13.690700 -0.041068 -0.009342 13.635118 0.067075 -0.401292 -0.061497 3.488147 1.321648 -0.300952 0.000000 0.000000 0.000000 1.265075 0.702820 0.101448 -0.170181 -0.871759 -0.110009 3.941648 -1.263632 -4.544042 -2.329033 -1.216079 3.063728 0.000000 0.000000 0.000000 0.000000 0.000000 0.000000 1.265075 0.702820 0.101448 4.220656 3.237961 -1.117178 -1.562754 -8.384329 1.032974 11.258988 2.816772 -8.137996 0.000000 0.000000 0.000000 0.000000 0.000000 0.000000 1.035924 -0.151772 12.683787 -0.005517 -0.116890 1.023828 -0.648146 11.978166 6.025310 0.000000 0.000000 0.000000 0.814844 0.014464 11.381747 0.476231 0.497989 2.299311 0.137525 -0.264751 -0.766179 0.000000 0.000000 0.000000
21.440164 38.065535 374.261084 -1.526316 -0.506296 -13.584350 0.062873 0.153714 13.522812 -0.020935 -0.417373 -0.074183 3.381863 1.665323 -0.323277 0.000000 0.000000 0.000000 0.455327 -0.249618 0.701632 0.904817 0.021605 -1.088969 3.369737 -2.460050 -3.874479 -1.635112 0.524457 2.708815 0.000000 0.000000 0.000000 0.000000 0.000000 0.000000 1.448750 0.792163 0.115028 4.376880 3.369043 -1.143823 -0.843146 -6.784122 0.849298 18.013296 -2.735632 -11.559292 0.000000 0.000000 0.000000 0.000000 0.000000 0.000000 1.203298 0.093921 12.381860 0.320013 0.704278 1.184981 -0.281224 14.374519 6.968003 0.000000 0.000000 0.000000 0.989068 0.259821 11.234458 0.136749 1.325702 2.413238 0.436799 -1.147224 -0.836294 0.000000 0.000000 0.000000
21.296738 38.071110 374.347385 -1.804420 -0.712647 -13.507727 0.162995 0.328286 13.437437 -0.107084 -0.421922 -0.088626 3.244770 1.900842 -0.308985 0.000000 0.000000 0.000000 0.468828 -0.371145 0.824394 1.170168 0.170970 -1.401776 2.307894 -5.191723 -3.083499 -1.111644 4.407254 2.586983 0.000000 0.000000 0.000000 0.000000 0.000000 0.000000 1.674684 0.857526 0.131893 4.528329 3.533692 -1.119079 -0.869365 -6.524404 0.766452 20.030594 -4.837681 -12.354219 0.000000 0.000000 0.000000 0.000000 0.000000 0.000000 1.406004 0.311409 12.074111 0.346196 0.746740 1.406963 0.141756 16.498868 7.577395 0.000000 0.000000 0.000000 1.214763 0.527302 11.183545 0.371010 1.502518 2.352234 0.185571 -1.369535 -0.838069 0.000000 0.000000 0.000000
